<svg id="Instagram" xmlns="http://www.w3.org/2000/svg" width="15" height="15" viewBox="0 0 15 15">
  <path id="Path_7" data-name="Path 7" d="M11.579,5.43c2,0,2.24.008,3.031.044A4.151,4.151,0,0,1,16,5.732a2.484,2.484,0,0,1,1.423,1.423,4.151,4.151,0,0,1,.258,1.393c.036.791.044,1.028.044,3.031s-.008,2.24-.044,3.031A4.151,4.151,0,0,1,17.426,16,2.484,2.484,0,0,1,16,17.426a4.151,4.151,0,0,1-1.393.258c-.791.036-1.028.044-3.031.044s-2.24-.008-3.031-.044a4.151,4.151,0,0,1-1.393-.258A2.484,2.484,0,0,1,5.732,16a4.151,4.151,0,0,1-.258-1.393c-.036-.791-.044-1.028-.044-3.031s.008-2.24.044-3.031a4.151,4.151,0,0,1,.258-1.393A2.484,2.484,0,0,1,7.156,5.732a4.151,4.151,0,0,1,1.393-.258c.791-.036,1.028-.044,3.031-.044m0-1.351c-2.037,0-2.292.009-3.092.045a5.505,5.505,0,0,0-1.821.349A3.835,3.835,0,0,0,4.473,6.666a5.505,5.505,0,0,0-.349,1.821c-.036.8-.045,1.055-.045,3.092s.009,2.292.045,3.092a5.505,5.505,0,0,0,.349,1.821,3.835,3.835,0,0,0,2.193,2.193,5.505,5.505,0,0,0,1.821.349c.8.036,1.055.045,3.092.045s2.292-.009,3.092-.045a5.505,5.505,0,0,0,1.821-.349,3.835,3.835,0,0,0,2.193-2.193,5.505,5.505,0,0,0,.349-1.821c.036-.8.045-1.055.045-3.092s-.009-2.292-.045-3.092a5.505,5.505,0,0,0-.349-1.821,3.835,3.835,0,0,0-2.193-2.193,5.505,5.505,0,0,0-1.821-.349c-.8-.036-1.055-.045-3.092-.045Z" transform="translate(-4.079 -4.079)" fill="#0f0f0f"/>
  <path id="Path_8" data-name="Path 8" d="M131.21,126.635a4.575,4.575,0,1,0,4.575,4.575A4.575,4.575,0,0,0,131.21,126.635Zm0,7.545a2.97,2.97,0,1,1,2.97-2.97A2.97,2.97,0,0,1,131.21,134.18Z" transform="translate(-123.71 -123.71)" fill="#0f0f0f"/>
  <circle id="Ellipse_2" data-name="Ellipse 2" cx="0.721" cy="0.721" r="0.721" transform="translate(10.89 2.667)" fill="#0f0f0f"/>
</svg>
