<?xml version="1.0" encoding="UTF-8"?><svg id="Layer_2" xmlns="http://www.w3.org/2000/svg" viewBox="0 0 208.3 199.01"><g id="Layer_1-2"><path d="M72.32,65.08h44.25v18.23c1.5-1.71,2.33-2.47,2.94-3.37,18.13-26.98,68.03-24.47,82.17,8.78,3.35,7.89,5.96,16.72,6.19,25.2,.76,28.14,.29,56.32,.29,84.86h-44.32c0-1.7,0-3.32,0-4.93,0-21.84,.1-43.68-.08-65.52-.04-4.92-.51-9.98-1.72-14.74-4.13-16.26-22.62-22.15-35.68-11.47-6.42,5.25-9.59,12.1-9.56,20.53,.09,23.65,.02,47.3,.02,70.95,0,1.63,0,3.27,0,5.23h-44.51V65.08Z"/><path d="M47.11,199.01H3.15V65.17H47.11V199.01Z"/><path d="M24.99,46.45c-17.55,0-28.83-14.42-23.78-30.41C5.22,3.35,20.42-3.22,34.72,1.56c12.17,4.07,18.55,17.18,14.35,29.49-3.29,9.65-12.27,15.39-24.08,15.39Z"/></g></svg>