<?xml version="1.0" encoding="UTF-8"?><svg xmlns="http://www.w3.org/2000/svg" viewBox="0 0 446.38 184.75"><g id="a"/><g id="b"><g id="c"><g><path d="M13.41,34.54L1.69,.68H11.04l9.55,29.25h-1.22L28.85,.68h9.07l-11.71,33.86H13.41Z" style="fill:#231f20;"/><path d="M52.55,35.21c-2.03,0-3.89-.41-5.59-1.22s-3.04-1.96-4.03-3.45c-.99-1.49-1.49-3.25-1.49-5.28,0-2.44,.56-4.45,1.69-6.03,1.13-1.58,2.64-2.79,4.54-3.62,1.9-.83,3.95-1.34,6.16-1.52l11.65-1.02-.07,6.37-10.36,1.08c-1.13,.09-2.23,.45-3.32,1.08s-1.62,1.65-1.62,3.05c0,1.04,.41,1.87,1.22,2.51s1.83,.95,3.05,.95h.34c1.35,0,2.62-.3,3.79-.91,1.17-.61,2.11-1.48,2.81-2.61,.7-1.13,1.05-2.42,1.05-3.86V12.53c0-1.04-.23-1.96-.68-2.78-.45-.81-1.08-1.46-1.9-1.93-.81-.47-1.78-.71-2.91-.71h-.41c-1.67,0-2.99,.43-3.96,1.29-.97,.86-1.5,1.78-1.59,2.78h-8.8c.23-2.12,.96-4.03,2.2-5.72,1.24-1.69,2.9-3.02,4.98-4,2.08-.97,4.54-1.46,7.38-1.46s5.33,.46,7.45,1.39c2.12,.93,3.78,2.29,4.98,4.1,1.2,1.81,1.79,4.04,1.79,6.7v14.9c0,.99,.01,2.19,.03,3.59,.02,1.4,.12,2.69,.3,3.86h-8.26c-.09-.5-.17-1.12-.24-1.86s-.12-1.5-.17-2.27c-.99,1.45-2.36,2.61-4.1,3.49-1.74,.88-3.71,1.32-5.93,1.32Z" style="fill:#231f20;"/><path d="M80.72,34.54V.68h8.8V5.62c1.04-1.71,2.45-3.08,4.23-4.1,1.78-1.02,3.78-1.52,5.99-1.52,2.71,0,4.93,.55,6.67,1.66,1.74,1.11,3.02,2.63,3.86,4.57,.83,1.94,1.25,4.15,1.25,6.64v21.67h-8.8V13.88c0-2.21-.46-3.89-1.39-5.04-.93-1.15-2.25-1.73-3.96-1.73h-.54c-1.35,0-2.58,.38-3.69,1.15-1.11,.77-1.99,1.81-2.64,3.12-.65,1.31-.98,2.75-.98,4.33v18.83h-8.8Z" style="fill:#231f20;"/><path d="M4.54,107.89V60.49H22.14c3.07,0,5.69,.55,7.85,1.66s3.83,2.58,4.98,4.43c1.15,1.85,1.73,3.91,1.73,6.16,0,1.9-.35,3.6-1.05,5.11-.7,1.51-1.65,2.78-2.84,3.79-1.2,1.02-2.56,1.75-4.1,2.2,1.67,.32,3.18,.97,4.54,1.96,1.35,.99,2.44,2.28,3.25,3.86,.81,1.58,1.22,3.45,1.22,5.62,0,2.35-.63,4.48-1.9,6.4-1.26,1.92-3.01,3.43-5.25,4.54-2.23,1.11-4.82,1.66-7.75,1.66H4.54Zm9.14-27.97h7.11c1.49,0,2.73-.21,3.72-.64,.99-.43,1.75-1.07,2.27-1.93,.52-.86,.78-1.9,.78-3.12,0-1.85-.58-3.25-1.73-4.2s-2.83-1.42-5.04-1.42h-7.11v11.31Zm0,19.84h7.79c1.49,0,2.76-.21,3.83-.64,1.06-.43,1.87-1.09,2.44-2,.56-.9,.85-2.03,.85-3.39,0-2.03-.63-3.53-1.9-4.5-1.26-.97-3-1.46-5.21-1.46h-7.79v11.99Z" style="fill:#231f20;"/><path d="M59.39,108.57c-2.84,0-5.48-.69-7.92-2.07-2.44-1.38-4.41-3.39-5.92-6.03-1.51-2.64-2.27-5.81-2.27-9.51,0-3.39,.65-6.41,1.96-9.07,1.31-2.66,3.18-4.75,5.62-6.26,2.44-1.51,5.33-2.27,8.67-2.27s6.21,.76,8.46,2.27c2.26,1.51,3.96,3.56,5.11,6.13,1.15,2.57,1.73,5.51,1.73,8.8,0,.5-.01,1.02-.03,1.56-.02,.54-.06,1.08-.1,1.62h-23.97v-6.57h16.12l-.54,.41c.04-1.13-.18-2.23-.68-3.32-.5-1.08-1.25-1.99-2.27-2.71-1.02-.72-2.31-1.08-3.89-1.08h-.41c-1.22,0-2.37,.28-3.45,.85-1.08,.57-1.96,1.35-2.64,2.37-.68,1.02-1.06,2.18-1.15,3.49v6.57c.04,1.26,.39,2.48,1.05,3.66,.65,1.17,1.55,2.14,2.67,2.91,1.13,.77,2.46,1.15,4,1.15h.41c1.71,0,3.07-.43,4.06-1.29,.99-.86,1.65-1.85,1.96-2.98h8.74c-.81,3.3-2.51,6.02-5.08,8.16-2.57,2.15-5.98,3.22-10.23,3.22Z" style="fill:#231f20;"/><path d="M84.04,107.89v-33.86h8.8v6.09c.54-1.49,1.29-2.71,2.23-3.66,.95-.95,2.16-1.65,3.62-2.1,1.47-.45,3.17-.68,5.11-.68h7.52v7.79h-8.13c-2.12,0-3.96,.35-5.52,1.05-1.56,.7-2.75,1.79-3.59,3.28-.84,1.49-1.25,3.43-1.25,5.82v16.25h-8.8Z" style="fill:#231f20;"/><path d="M130.89,122.79c-2.98,0-5.65-.47-8.02-1.42s-4.25-2.27-5.65-3.96c-1.4-1.69-2.17-3.62-2.3-5.79h8.8c.23,1.13,.97,2.09,2.23,2.88,1.26,.79,3.05,1.18,5.35,1.18h.41c1.49,0,2.83-.3,4.03-.91,1.2-.61,2.14-1.51,2.84-2.71s1.05-2.7,1.05-4.5v-4.4c-.99,1.67-2.37,2.88-4.13,3.62-1.76,.74-3.57,1.12-5.42,1.12-1.94,0-3.79-.37-5.55-1.12-1.76-.75-3.32-1.85-4.67-3.32-1.35-1.47-2.43-3.27-3.22-5.42-.79-2.14-1.19-4.62-1.19-7.42,0-3.75,.68-6.9,2.03-9.45,1.35-2.55,3.15-4.49,5.38-5.82,2.24-1.33,4.64-2,7.21-2,1.26,0,2.49,.16,3.69,.47,1.2,.32,2.3,.82,3.32,1.52,1.02,.7,1.86,1.61,2.54,2.74v-4.06h8.8v34.6c0,2.35-.64,4.6-1.93,6.77-1.29,2.17-3.23,3.94-5.82,5.32-2.6,1.38-5.86,2.07-9.79,2.07Zm.95-22.01h.54c1.04,0,1.99-.23,2.84-.68,.86-.45,1.62-1.12,2.3-2,.68-.88,1.2-1.94,1.56-3.18,.36-1.24,.54-2.67,.54-4.3,0-2.17-.32-4.01-.95-5.52-.63-1.51-1.5-2.66-2.61-3.45-1.11-.79-2.34-1.19-3.69-1.19h-.54c-1.4,0-2.67,.4-3.83,1.19-1.15,.79-2.07,1.94-2.74,3.45-.68,1.51-1.02,3.35-1.02,5.52,0,3.21,.73,5.7,2.2,7.48,1.47,1.78,3.26,2.67,5.38,2.67Z" style="fill:#231f20;"/><path d="M172.81,108.57c-2.84,0-5.48-.69-7.92-2.07-2.44-1.38-4.41-3.39-5.92-6.03-1.51-2.64-2.27-5.81-2.27-9.51,0-3.39,.65-6.41,1.96-9.07,1.31-2.66,3.18-4.75,5.62-6.26,2.44-1.51,5.33-2.27,8.67-2.27s6.21,.76,8.46,2.27c2.26,1.51,3.96,3.56,5.11,6.13s1.73,5.51,1.73,8.8c0,.5-.01,1.02-.03,1.56s-.06,1.08-.1,1.62h-23.97v-6.57h16.12l-.54,.41c.04-1.13-.18-2.23-.68-3.32-.5-1.08-1.25-1.99-2.27-2.71-1.02-.72-2.31-1.08-3.89-1.08h-.41c-1.22,0-2.37,.28-3.45,.85-1.08,.57-1.96,1.35-2.64,2.37-.68,1.02-1.06,2.18-1.15,3.49v6.57c.04,1.26,.39,2.48,1.05,3.66,.65,1.17,1.55,2.14,2.67,2.91,1.13,.77,2.46,1.15,4,1.15h.41c1.71,0,3.07-.43,4.06-1.29s1.65-1.85,1.96-2.98h8.74c-.81,3.3-2.5,6.02-5.08,8.16-2.57,2.15-5.98,3.22-10.23,3.22Z" style="fill:#231f20;"/><path d="M196.85,107.89v-33.86h8.8v4.94c1.04-1.71,2.45-3.08,4.23-4.1,1.78-1.02,3.78-1.52,5.99-1.52,2.71,0,4.93,.55,6.67,1.66,1.74,1.11,3.02,2.63,3.86,4.57,.83,1.94,1.25,4.15,1.25,6.64v21.67h-8.8v-20.65c0-2.21-.46-3.89-1.39-5.04-.93-1.15-2.25-1.73-3.96-1.73h-.54c-1.35,0-2.58,.38-3.69,1.15-1.11,.77-1.99,1.81-2.64,3.12-.65,1.31-.98,2.75-.98,4.33v18.83h-8.8Z" style="fill:#231f20;"/><path d="M258.47,107.89V60.49h9.14v47.4h-9.14Zm5.08-9.68l-.14-12.19,21.13-25.53h10.43l-31.42,37.72Zm21.47,9.68l-13.07-22.01,6.09-6.64,17.2,28.64h-10.23Z" style="fill:#231f20;"/><path d="M314,108.57c-3.39,0-6.34-.77-8.87-2.3-2.53-1.53-4.5-3.62-5.93-6.26-1.42-2.64-2.13-5.65-2.13-9.04s.71-6.41,2.13-9.07c1.42-2.66,3.4-4.75,5.93-6.26,2.53-1.51,5.48-2.27,8.87-2.27s6.34,.76,8.87,2.27c2.53,1.51,4.5,3.6,5.93,6.26,1.42,2.66,2.13,5.69,2.13,9.07s-.71,6.4-2.13,9.04c-1.42,2.64-3.4,4.73-5.93,6.26-2.53,1.54-5.48,2.3-8.87,2.3Zm-.27-7.11h.54c1.58,0,2.96-.42,4.13-1.25,1.17-.83,2.08-2.03,2.71-3.59,.63-1.56,.95-3.44,.95-5.65s-.32-4.1-.95-5.65c-.63-1.56-1.54-2.75-2.71-3.59-1.17-.83-2.55-1.25-4.13-1.25h-.54c-1.58,0-2.96,.42-4.13,1.25-1.17,.84-2.08,2.03-2.71,3.59-.63,1.56-.95,3.44-.95,5.65s.32,4.1,.95,5.65c.63,1.56,1.53,2.75,2.71,3.59,1.17,.84,2.55,1.25,4.13,1.25Z" style="fill:#231f20;"/><path d="M335.66,107.89v-7.11h32.77v7.11h-32.77Zm1.83-40.29v-7.11h19.16v7.11h-19.16Zm10.36,40.29V60.49h8.8v47.4h-8.8Z" style="fill:#231f20;"/><path d="M376.43,121.44v-47.4h8.8v4.4c.68-1.17,1.88-2.31,3.62-3.42,1.74-1.11,3.78-1.66,6.13-1.66,3.29,0,6.05,.83,8.26,2.5,2.21,1.67,3.89,3.84,5.04,6.5,1.15,2.66,1.73,5.53,1.73,8.6,0,2.3-.33,4.5-.98,6.6-.66,2.1-1.62,3.97-2.88,5.62-1.26,1.65-2.83,2.96-4.71,3.93-1.87,.97-4.03,1.46-6.47,1.46s-4.39-.55-6.13-1.66c-1.74-1.11-2.95-2.25-3.62-3.42v17.94h-8.8Zm16.52-19.98h.54c1.49,0,2.81-.42,3.96-1.25,1.15-.83,2.07-2.04,2.74-3.62,.68-1.58,1.02-3.43,1.02-5.55s-.34-4.04-1.02-5.62c-.68-1.58-1.59-2.8-2.74-3.66-1.15-.86-2.47-1.29-3.96-1.29h-.54c-.99,0-1.95,.25-2.88,.75-.93,.5-1.75,1.2-2.47,2.1-.72,.9-1.3,2-1.73,3.28-.43,1.29-.64,2.74-.64,4.37,0,2.12,.36,3.97,1.08,5.55,.72,1.58,1.67,2.8,2.84,3.66,1.17,.86,2.44,1.29,3.79,1.29Z" style="fill:#231f20;"/><path d="M427.69,108.57c-2.03,0-3.89-.41-5.59-1.22-1.69-.81-3.04-1.96-4.03-3.45-.99-1.49-1.49-3.25-1.49-5.28,0-2.44,.56-4.45,1.69-6.03,1.13-1.58,2.64-2.79,4.54-3.62,1.9-.83,3.95-1.34,6.16-1.52l11.65-1.02-.07,6.37-10.36,1.08c-1.13,.09-2.23,.45-3.32,1.08-1.08,.63-1.63,1.65-1.63,3.05,0,1.04,.41,1.87,1.22,2.51,.81,.63,1.83,.95,3.05,.95h.34c1.35,0,2.62-.3,3.79-.91,1.17-.61,2.11-1.48,2.81-2.61,.7-1.13,1.05-2.42,1.05-3.86v-8.19c0-1.04-.23-1.96-.68-2.78-.45-.81-1.08-1.46-1.9-1.93-.81-.47-1.78-.71-2.91-.71h-.41c-1.67,0-2.99,.43-3.96,1.29-.97,.86-1.5,1.78-1.59,2.78h-8.8c.23-2.12,.96-4.03,2.2-5.72,1.24-1.69,2.9-3.02,4.98-4,2.08-.97,4.54-1.46,7.38-1.46s5.33,.46,7.45,1.39c2.12,.93,3.78,2.29,4.98,4.1,1.2,1.81,1.79,4.04,1.79,6.7v14.9c0,.99,.01,2.19,.03,3.59,.02,1.4,.12,2.69,.3,3.86h-8.26c-.09-.5-.17-1.12-.24-1.86-.07-.75-.12-1.5-.17-2.27-.99,1.45-2.36,2.61-4.1,3.49-1.74,.88-3.71,1.32-5.92,1.32Z" style="fill:#231f20;"/><path d="M0,184.08l14.42-47.4h11.24l13.95,47.4h-9.68l-10.7-38.94h1.02l-10.63,38.94H0Zm9.55-11.17v-8.13H31.22v8.13H9.55Z" style="fill:#231f20;"/><path d="M47.13,184.08v-33.86h8.8v6.09c.54-1.49,1.29-2.71,2.23-3.66,.95-.95,2.16-1.65,3.62-2.1,1.47-.45,3.17-.68,5.11-.68h7.52v7.79h-8.13c-2.12,0-3.96,.35-5.52,1.05-1.56,.7-2.75,1.79-3.59,3.28-.84,1.49-1.25,3.43-1.25,5.82v16.25h-8.8Z" style="fill:#231f20;"/><path d="M95.48,184.75c-3.02,0-5.77-.71-8.23-2.13-2.46-1.42-4.41-3.45-5.86-6.09-1.45-2.64-2.17-5.77-2.17-9.38,0-2.71,.42-5.15,1.25-7.31,.83-2.17,1.99-4.02,3.45-5.55,1.47-1.53,3.18-2.71,5.15-3.52s4.1-1.22,6.4-1.22c2.93,0,5.5,.45,7.69,1.35,2.19,.9,3.94,2.28,5.25,4.13,1.31,1.85,2.08,4.2,2.3,7.04h-8.8c-.27-1.67-.91-2.99-1.93-3.96s-2.45-1.46-4.3-1.46h-.41c-1.67,0-3.05,.47-4.13,1.42s-1.87,2.21-2.37,3.79c-.5,1.58-.75,3.34-.75,5.28s.25,3.65,.75,5.25c.5,1.6,1.29,2.88,2.37,3.83,1.08,.95,2.46,1.42,4.13,1.42h.41c1.85,0,3.28-.48,4.3-1.46,1.02-.97,1.66-2.29,1.93-3.96h8.8c-.32,4.24-1.83,7.39-4.54,9.45-2.71,2.05-6.28,3.08-10.7,3.08Z" style="fill:#231f20;"/><path d="M119.65,184.08v-47.4h8.8v18.49c1.04-1.71,2.45-3.08,4.23-4.1,1.78-1.02,3.78-1.52,5.99-1.52,2.71,0,4.93,.55,6.67,1.66,1.74,1.11,3.02,2.63,3.86,4.57,.83,1.94,1.25,4.15,1.25,6.64v21.67h-8.8v-20.65c0-2.21-.46-3.89-1.39-5.04-.93-1.15-2.25-1.73-3.96-1.73h-.54c-1.35,0-2.58,.38-3.69,1.15-1.11,.77-1.99,1.81-2.64,3.11-.66,1.31-.98,2.75-.98,4.33v18.83h-8.8Z" style="fill:#231f20;"/><path d="M159,184.08v-7.11h32.77v7.11h-32.77Zm1.83-26.75v-7.11h19.16v7.11h-19.16Zm9.82-10.63v-10.02h9.89v10.02h-9.89Zm.54,37.38v-33.86h8.8v33.86h-8.8Z" style="fill:#231f20;"/><path d="M213.24,184.08c-2.89,0-5.08-.75-6.57-2.23s-2.23-3.68-2.23-6.57v-17.95h-10.5v-7.11h10.5v-10.97h8.8v10.97h11.92v7.11h-11.92v15.58c0,1.54,.24,2.54,.71,3.01,.47,.47,1.48,.71,3.01,.71h9.68v7.45h-13.41Z" style="fill:#231f20;"/><path d="M248.65,184.75c-2.84,0-5.48-.69-7.92-2.07-2.44-1.38-4.41-3.39-5.92-6.03-1.51-2.64-2.27-5.81-2.27-9.51,0-3.39,.65-6.41,1.96-9.07,1.31-2.66,3.18-4.75,5.62-6.26,2.44-1.51,5.33-2.27,8.67-2.27s6.21,.76,8.46,2.27c2.26,1.51,3.96,3.55,5.11,6.13s1.73,5.51,1.73,8.8c0,.5-.01,1.02-.03,1.56-.02,.54-.06,1.08-.1,1.62h-23.97v-6.57h16.12l-.54,.41c.04-1.13-.18-2.23-.68-3.32-.5-1.08-1.25-1.99-2.27-2.71-1.02-.72-2.31-1.08-3.89-1.08h-.41c-1.22,0-2.37,.28-3.45,.85-1.08,.56-1.96,1.35-2.64,2.37-.68,1.02-1.06,2.18-1.15,3.49v6.57c.04,1.26,.39,2.48,1.05,3.66,.65,1.17,1.55,2.14,2.67,2.91,1.13,.77,2.46,1.15,4,1.15h.41c1.71,0,3.07-.43,4.06-1.29,.99-.86,1.65-1.85,1.96-2.98h8.74c-.81,3.3-2.5,6.02-5.08,8.16-2.57,2.14-5.98,3.22-10.23,3.22Z" style="fill:#231f20;"/><path d="M287.79,184.75c-3.02,0-5.77-.71-8.23-2.13-2.46-1.42-4.41-3.45-5.86-6.09-1.45-2.64-2.17-5.77-2.17-9.38,0-2.71,.42-5.15,1.25-7.31,.83-2.17,1.99-4.02,3.45-5.55,1.47-1.53,3.18-2.71,5.15-3.52,1.96-.81,4.1-1.22,6.4-1.22,2.93,0,5.5,.45,7.69,1.35,2.19,.9,3.94,2.28,5.25,4.13,1.31,1.85,2.08,4.2,2.3,7.04h-8.8c-.27-1.67-.91-2.99-1.93-3.96-1.02-.97-2.45-1.46-4.3-1.46h-.41c-1.67,0-3.05,.47-4.13,1.42-1.08,.95-1.87,2.21-2.37,3.79-.5,1.58-.74,3.34-.74,5.28s.25,3.65,.74,5.25,1.29,2.88,2.37,3.83c1.08,.95,2.46,1.42,4.13,1.42h.41c1.85,0,3.28-.48,4.3-1.46,1.02-.97,1.66-2.29,1.93-3.96h8.8c-.32,4.24-1.83,7.39-4.54,9.45-2.71,2.05-6.28,3.08-10.7,3.08Z" style="fill:#231f20;"/><path d="M329.03,184.08c-2.89,0-5.08-.75-6.57-2.23s-2.23-3.68-2.23-6.57v-17.95h-10.5v-7.11h10.5v-10.97h8.8v10.97h11.92v7.11h-11.92v15.58c0,1.54,.24,2.54,.71,3.01,.47,.47,1.48,.71,3.01,.71h9.68v7.45h-13.41Z" style="fill:#231f20;"/><path d="M363.77,184.75c-2.84,0-5.48-.69-7.92-2.07-2.44-1.38-4.41-3.39-5.92-6.03-1.51-2.64-2.27-5.81-2.27-9.51,0-3.39,.65-6.41,1.96-9.07,1.31-2.66,3.18-4.75,5.62-6.26,2.44-1.51,5.33-2.27,8.67-2.27s6.21,.76,8.46,2.27c2.26,1.51,3.96,3.55,5.11,6.13s1.73,5.51,1.73,8.8c0,.5-.01,1.02-.03,1.56-.02,.54-.06,1.08-.1,1.62h-23.97v-6.57h16.12l-.54,.41c.04-1.13-.18-2.23-.68-3.32-.5-1.08-1.25-1.99-2.27-2.71-1.02-.72-2.31-1.08-3.89-1.08h-.41c-1.22,0-2.37,.28-3.45,.85-1.08,.56-1.96,1.35-2.64,2.37-.68,1.02-1.06,2.18-1.15,3.49v6.57c.04,1.26,.39,2.48,1.05,3.66,.65,1.17,1.55,2.14,2.67,2.91,1.13,.77,2.46,1.15,4,1.15h.41c1.71,0,3.07-.43,4.06-1.29,.99-.86,1.65-1.85,1.96-2.98h8.74c-.81,3.3-2.5,6.02-5.08,8.16-2.57,2.14-5.98,3.22-10.23,3.22Z" style="fill:#231f20;"/><path d="M387.81,184.08v-33.86h8.8v4.94c1.04-1.71,2.45-3.08,4.23-4.1,1.78-1.02,3.78-1.52,5.99-1.52,2.71,0,4.93,.55,6.67,1.66,1.74,1.11,3.02,2.63,3.86,4.57,.83,1.94,1.25,4.15,1.25,6.64v21.67h-8.8v-20.65c0-2.21-.46-3.89-1.39-5.04-.93-1.15-2.25-1.73-3.96-1.73h-.54c-1.35,0-2.58,.38-3.69,1.15-1.11,.77-1.99,1.81-2.64,3.11-.65,1.31-.98,2.75-.98,4.33v18.83h-8.8Z" style="fill:#231f20;"/></g></g></g></svg>