<svg id="Twitter" xmlns="http://www.w3.org/2000/svg" width="18.46" height="15" viewBox="0 0 18.46 15">
  <path id="Logo" d="M17.58,5.234c.011.162.011.326.011.49A10.7,10.7,0,0,1,6.814,16.5v0a10.722,10.722,0,0,1-5.805-1.7,7.706,7.706,0,0,0,.9.055,7.6,7.6,0,0,0,4.7-1.625A3.792,3.792,0,0,1,3.076,10.6a3.78,3.78,0,0,0,1.71-.065A3.789,3.789,0,0,1,1.747,6.821V6.773a3.759,3.759,0,0,0,1.719.474A3.79,3.79,0,0,1,2.294,2.191,10.753,10.753,0,0,0,10.1,6.149a3.791,3.791,0,0,1,6.454-3.454,7.591,7.591,0,0,0,2.405-.919A3.8,3.8,0,0,1,17.294,3.87a7.559,7.559,0,0,0,2.175-.6A7.706,7.706,0,0,1,17.58,5.234Z" transform="translate(-1.009 -1.5)" fill="#0f0f0f"/>
</svg>
